<svg xmlns="http://www.w3.org/2000/svg" xmlns:xlink="http://www.w3.org/1999/xlink" version="1.1" id="Layer_1" x="0px" y="0px" style="enable-background:new 0 0 682 458;" xml:space="preserve" viewBox="148.53 115.72 379.57 255.01">
<g id="XMLID_2_">
	<path id="XMLID_3_" d="M194.9,218.8h2.1c3.1-2.5,6.1-7.5,7-13.5c0.2-1.2,0.3-2.4,0.3-3.6c0-2.7-1-11.1-12.8-11.7h-0.7   c-0.9,7.9-3.4,22-5,29.5c0.3-0.1,0.8-0.1,1.3-0.2C189.1,219,192,218.8,194.9,218.8z"/>
	<path id="XMLID_184_" d="M182,252.4c2.4,1.3,6.6,1.5,8.5,1.5c6.7,0,12-4,13.3-11.9c0.2-1.1,0.3-2.3,0.3-3.6   c0-5.7-3.6-10.3-8.9-12.5c-0.8-0.3-1.6-0.6-2.4-0.8c-1.6-0.4-3.4-0.7-5.2-0.7c-0.4,0-0.9,0-1.4,0c-0.4,0-0.7,0-1,0.1   c-0.1,0.4-0.1,0.8-0.2,1.3c-0.7,3.9-2.4,11.2-3.5,17c-0.6,3.2-1.1,6-1.1,7.3c0,0.6,0.2,1,0.6,1.5   C181.2,251.9,181.6,252.2,182,252.4z"/>
	<path id="XMLID_185_" d="M231.4,249.5c5.6,0,7.8-11.9,11.4-23c0.7-2.1,1.4-4.2,2.3-6.2c0.6-1.5,1.3-3,2.1-4.4   c0.3-0.6,0.7-1.1,1-1.7c0,0-0.7-0.3-1.7-0.3c-2.2,0-4.5,1.2-6.6,3.2c-2.4,2.3-4.7,5.6-6.6,9.2c-2.9,5.7-4.9,12.3-4.9,17.1   c0,1.2,0.1,2.1,0.3,2.9C229.2,248.9,230.4,249.5,231.4,249.5z"/>
	<path id="XMLID_186_" d="M283.2,215.3c3.2-5.9,6.8-14.7,8.4-20.2c0.6-2,1-3.5,1-4.4c0-1.2-0.4-1.8-1.1-1.8   c-2.5,0-7.4,15.7-10.7,29.3l0.4,0.5C281.9,217.7,282.5,216.5,283.2,215.3z"/>
	<path id="XMLID_187_" d="M337.4,220.4c0.6-1.2,0.9-2.6,0.9-4.1c0-0.1,0-0.2,0-0.4c-0.1-1.3-1-2-1.8-2c-1.7,0-3.6,1.1-5.3,2.9   c-2.6,2.7-4.9,6.8-6.5,11.1c1.1-0.1,2.2-0.3,3.3-0.6C332,226.2,335.7,223.9,337.4,220.4z"/>
	<path id="XMLID_188_" d="M509.7,220.4c0.6-1.2,0.9-2.6,0.9-4.1c0-0.1,0-0.2,0-0.4c-0.1-1.3-1-2-1.8-2c-1.8,0-3.6,1.1-5.3,3   c-2.5,2.7-4.9,6.8-6.5,11c1.1-0.1,2.2-0.3,3.3-0.6C504.4,226.2,508.1,223.9,509.7,220.4z"/>
	<path id="XMLID_191_" d="M523.1,256.4c-0.4-0.9-0.8-1.8-1.3-2.5l0.3-0.6c-1.5-1.8-3.5-3.3-5.5-4.2l-0.2,0.1c-0.9-0.4-1.9-0.7-3-0.9   c-3-0.5-5.6,0-7.5,0.4c-0.5,0.1-1.1,0.2-1.4,0.3l-0.7,0.1l-0.6,0.1c0-0.4-0.1-1-0.1-1.8c0-0.1,0-0.2,0-0.4   c21.5-2.5,25-14.7,25-22.3c0-8.8-5.8-17.7-18.9-17.7c-6.4,0-12.3,2.4-17.5,6.2c2.6-6.4,4.5-13.1,4.5-19.4c0-9.8-6.5-14.9-12.8-14.9   c-5.2,0-13.4,2.5-23.4,24c-1.5,3.3-3,6.7-4.3,10.3c-3.2-2.6-9.1-6.2-16.9-6.2c-10.2,0-20.4,5.3-28.2,14.4c-1.5,1.7-2.8,3.6-4,5.5   c-1.2-1.6-2.5-3-3.9-4.3c5.7-1.8,9.6-6.6,11.1-9.7c1.8-3.7,2.8-7.5,2.8-11.5c0-12.9-10.2-22.3-24.3-22.3c-2.7,0-5.3,0.3-7.8,0.7   c-15.2-16.4-35.7-22.8-59.4-22.3c-25.6,0.5-52.8,17.7-59.8,36.9c29.9-40,81.9-43.7,116.7-14c-14.6,3.7-24.7,15.2-24.7,29.6   c0,7.5,2.5,13.4,6,18.2h-7.8c0.2-1.2,0.2-2.3,0.2-3.4c0-8.8-5.8-17.7-18.9-17.7c-7.3,0-14.4,3.1-20.6,8.9   c-2.2-5.8-7.6-8.9-12.8-8.9c-0.3,0-0.6,0-0.9,0c1.5-4.8,2.3-9.3,2.3-13.2c0-9.8-6.4-14.9-12.7-14.9c-8.4,0-15.8,7.5-23.3,23.6   c-1.6,3.4-3.1,7-4.5,10.7c-3.1-2.6-9.1-6.3-17-6.3c-8.7,0-17.5,3.8-24.7,10.7c1.4-3.5,2.4-7.6,2.4-12.4c0-5.5-1.6-10.3-4.5-14.3   c24.6-39.8,58.8-68.2,109.4-67.6c51.3,0.5,85.6,30.2,110.1,71.3c-12.6-42.8-59.4-82-119-78.8c-51.6,2.8-91.1,41.6-100.8,74.6   c-5.5-7.1-15.3-11.3-27.8-11.3c-9.7,0-29.6,3.8-35.2,18.4l-0.2,0.5l-0.1,0.5c-0.2,0.6-0.5,1.8-0.5,3.3c0,2.7,1.1,5.3,3,7.3l6.2,6.2   l2.9-2.8c-2.6,12.8-7.1,33-12.8,52l-3.4,11.4h8.1c-3.5,2.7-6.3,5.9-8.4,9.8c-5.9,10.6-4.1,24.4,4,31.6c4.4,3.8,8.2,4.9,11.2,4.9   c0.9,0,1.7-0.1,2.4-0.2c3.7-0.8,6.8-3.2,8.6-6.9c2.8-5.8,7.5-8.3,18.1-9.6c8.6-1.1,17.5-2.2,26.3-3c16.8,37.9,62,72.4,115.2,67.7   c47.1-4.1,84.3-35.3,98.1-66.9c9.5-0.1,19-0.2,28.5-0.5c19.2-0.5,53.3-8.4,59.4-35.1c0.8-3.5,0.8-6.7,0-9.5   C523.5,257.6,523.3,257,523.1,256.4z M392.6,202.3c0.4,0,1.1,0.4,1.2,0.7c0,0.5-0.7,2-2.8,3.4l-5.3,3.5c-0.5-0.8-0.6-1.7-0.6-2.7   C385,204.1,387.8,202.3,392.6,202.3z M384.6,182.6c0.7-0.2,1.3-0.3,2-0.4c1.8-0.3,3.7-0.5,5.6-0.5c9.9,0,15.4,6.1,15.4,13.4   c0,1.1-0.1,2.1-0.3,3.2c-0.3,1.4-0.8,2.9-1.5,4.3c-0.5,1.1-1.9,3-3.8,4.2c-1.1,0.7-2.4,1.3-3.8,1.3c-0.7,0-1.4-0.1-2.2-0.5   c3.1-2.1,5.3-4.8,6.3-7.7c0.3-1,0.5-2.1,0.5-3.2c0-3.7-2.2-6.5-4.9-8.1c-1.7-1-3.5-1.5-5.2-1.5c-0.8,0-1.5,0-2.2,0.1   c-0.4,0-0.7,0.1-1.1,0.1c-2.2,0.3-4.1,0.8-5.7,1.6c-5.3,2.6-7.6,7.5-7.6,12c0,1.2,0.1,2.3,0.3,3.3c2.9,13.5,23.5,13,26.2,29.7   c0,0.2,0,0.4,0.1,0.6c0.1,1,0.2,2,0.2,3.1c0,1-0.1,2-0.2,3.1c-0.5,3.4-1.8,7.1-4.1,10.5c-4.2,6.1-11.8,11-24.1,11   c-10,0-15.4-4.7-17.6-10c-0.3-0.8-0.6-1.6-0.7-2.4c-0.2-1-0.3-2.1-0.3-3.1c0-6.8,4.2-9.6,7-10.1c0,0.1,0,0.2,0,0.3   c-0.1,0.9-0.2,1.8-0.2,2.6c0,6.7,3,12.7,11.7,12.7c7.9,0,13.2-4,14.7-9.7c0.3-1.1,0.5-2.3,0.5-3.5c0-1.7-0.5-3.2-1.4-4.7   c-4.7-7.8-19.8-13.3-21.8-27.4c-0.1-1-0.2-2.1-0.2-3.2C366.1,192.8,374.2,185.2,384.6,182.6z M367.3,233l-1.7,0.3l-1.6-0.1l0.9-2.8   C365.7,231.3,366.5,232.1,367.3,233z M317.1,222.2c5.1-7.2,12.1-12.5,19.6-12.5c7.7,0,10,4.4,10,8.8c0,1.2-0.1,2.3-0.4,3.3   c-1.3,5-5.5,7.6-10.3,9c-1.1,0.3-2.3,0.6-3.5,0.8c-2.4,0.4-4.9,0.6-7.2,0.7c-0.8,0-1.5,0-2.2,0.1c-1,3.2-1.4,6.2-1.4,8.8   c0,1.2,0.1,2.3,0.2,3.3c0.6,4.6,2.8,7.4,8.6,7.4c2.7,0,12.3-2,19.9-19.9c0.2-0.4,0.3-0.8,0.5-1.2h2.4c-0.2,0.5-0.3,0.9-0.5,1.4   c-0.6,1.7-1.1,3.3-1.8,4.8c-7.6,18.7-18.6,25.2-29.2,25.2c-0.8,0-1.6-0.1-2.4-0.2c-4.8-0.9-8.4-4.5-10-9.7c-0.3-1-0.5-2.1-0.7-3.3   c-0.1-0.9-0.2-1.9-0.2-2.9c0-1.9,0.2-3.9,0.6-6c0.7-3.7,2-7.5,3.7-11.2C314.3,226.6,315.6,224.3,317.1,222.2z M247.3,209.7   c5.7,0,10.1,3,12.4,5.2c-0.5,1.2-1.1,2.8-1.8,4.7c-0.7,2.1-1.5,4.5-2.3,7.1c-2.2,7.4-4.3,16.1-4.3,21.9c0,0.8,0.1,1.5,0.3,2.1   c0.3,1.1,1,1.7,1.9,1.7c2.6,0,7.4-6.3,11.9-15.3c0.5-3.3,1.2-6.8,2.1-10.2c5.4-22.1,16.7-45.2,24.5-45.2c1.9,0,3.8,1.8,3.8,6   c0,1.1-0.1,2.4-0.3,3.7c-0.9,6.2-3.9,14.5-9.5,24.3c-1.5,2.6-3.2,5.4-5.1,8.2c-0.4,0.6-0.8,1.3-1.3,1.9l0.7,0.1   c0.3-0.3,0.6-0.7,0.8-1c0-0.1,0.1-0.1,0.1-0.1c2-2.4,4.6-5.2,7.3-7.7c4.5-4,9.7-7.3,14.6-7.3c2,0,4.9,1.3,4.9,5.8   c0,1.2-0.2,2.4-0.5,3.5c-0.8,3.4-2.7,6.4-5.1,9.1c-2.9,3.3-6.6,6.1-9.8,8.3c-1.6,1.1-3.1,2-4.4,2.7c-0.1,0.4-0.2,0.9-0.2,1.3   c0,0,0,0.1,0,0.1c0,1.3,0.5,2.7,1.4,4.1c1.9,3.1,5.7,6.1,10.3,8.1c2.8,1.2,5.9,2.1,9.1,2.3c0.5,0,0.9,0.1,1.4,0.1   c0,0,0.8,2,0.8,4.2c0,0.7-0.1,1.4-0.3,2.1c-0.1,0.2-0.1,0.5-0.2,0.7c-0.8,2-2.9,3.8-7.4,3.9c-0.2,0-0.4,0-0.5,0   c-7.8,0-19.3-7.9-20.9-20.5c-0.1-1-0.2-2-0.2-3c0-1.2,0.1-2.5,0.3-3.8c3.6-1.9,9.6-6.6,13.6-11.1c1-1.1,1.8-2.2,2.5-3.2   c0.9-1.4,1.5-2.7,1.5-3.8c0-1.2-0.5-2.5-2.3-2.5c-0.5,0-1.1,0.1-1.6,0.3c-2.4,0.7-5,2.9-7.5,5.6c-0.9,1-1.8,2.1-2.6,3.2   c-2,2.6-3.7,5.3-4.9,7.8c-1.9,3.8-2.9,9.1-2.9,14.8c0,1,0,2.1,0.1,3.1c0.2,2.5,0.5,4.9,1,7.3c0,0-0.3,0.3-0.9,0.6   c-1,0.7-2.8,1.6-4.6,1.6c-7.5,0-8.8-9.4-8.8-13.2c0-1.1,0-2.3,0.1-3.4c-4.3,8.4-10.2,16.7-16,16.7c-3.2,0-7.9-0.8-8.9-7.1   c-0.1-0.5-0.1-0.9-0.2-1.5c0-0.4,0-0.7,0-1.1c0-1.5,0.1-3.2,0.4-5.1h-1c-1.4,4.4-7.3,14.8-13.9,14.8c-1.2,0-2.3-0.3-3.3-1   c-2.7-1.7-4.8-5.5-5.3-10.7c-0.1-0.8-0.1-1.7-0.1-2.6c0,0,0-0.1,0-0.1c0-0.8,0-1.6,0.1-2.3c0.3-5.5,1.7-10.8,3.9-15.5   c0.6-1.3,1.3-2.6,2.1-3.9C228.1,216.3,237.7,209.7,247.3,209.7z M179.4,196.4c0.2-1.2,0.4-2,0.4-2.3c0.1-1,1.2-3.6,1.9-4.2   c-1.2,0.1-2.4,0.3-3.6,0.5c-4.4,0.8-8.9,2.6-12.5,6.1c-0.3-0.3-0.4-0.6-0.4-1c0-0.4,0.1-0.8,0.2-1.2c3.4-8.7,17.5-12.7,26.9-12.7   c14.5,0,23.8,6.6,23.8,17.3c0,1.2-0.1,2.4-0.2,3.5c-1.3,9.6-7.7,14.5-13.2,18.5c1.8,0.6,3.4,1.4,4.8,2.4c1.1,0.8,2.1,1.7,3,2.6   c1.1,1.2,2,2.5,2.8,3.8c1.9,3.4,2.9,7.1,2.9,10c0,1.2-0.1,2.4-0.2,3.5c-0.8,6.7-4,11.3-8.6,14.3c-4.7,3.1-11,4.5-17.8,4.5   c-1.3,0-3.9-0.2-7-0.4c-5-0.4-11.4-0.9-16.7-1c-0.6,0-1.2,0-1.8,0C172.1,234.1,177.8,204.7,179.4,196.4z M386,303.3   c-32.5,32.2-82.7,31.9-114.3-1.7c14.8,0.2,29.5,0.4,44,0.7c17.2,0.3,35.1,0.7,52.6,0.8C374,303.2,379.9,303.3,386,303.3z    M330.2,362.9c-47.4,0.7-80.5-24-105.3-60.7c5.9-0.5,11.9-0.8,17.8-0.8h0.1c8.9,0,17.9,0.1,26.8,0.2c14.1,20.2,40.1,31.2,68.9,28.5   c19.5-1.8,40.9-13.7,50.7-26.8c13.9,0.1,28.4,0.1,43.2,0C408.9,337.9,376.6,362.3,330.2,362.9z M515,259.6c0,0.1-0.1,0.2-0.1,0.4   c-3.4,13.9-18.2,21.7-32.8,25.3c-6.4,1.6-12.7,2.4-18.1,2.5c-31.9,0.8-63.8,0.6-95.7,0.4c-33.8-0.3-67.6-1.2-101.4-1.6   c-8-0.1-16-0.1-24-0.2c-16,0-32,2-47.9,4c-10,1.3-19.8,3.8-25,14.6c-1.9,3.9-5.7,1.7-8.3-0.6c-2.3-2-3.7-4.9-4.2-8.2   c-0.7-4,0-8.6,2.1-12.4c1.9-3.3,4.3-5.9,7.2-7.9c2.3-1.6,4.9-2.9,7.7-3.9c2.8-1,5.7-1.8,8.5-2.5c1.7-0.4,3.4-0.8,5.1-1.1   c4.6-0.9,9.3-1.5,14-1.9c2.4-0.2,4.9-0.3,7.3-0.5c3-0.1,6-0.2,9.1-0.3c0.3,0,0.5,0,0.8,0c0.1,0,0.1,0,0.2,0c3.8-0.1,7.6-0.1,11.4,0   c3.5,0,7,0.1,10.5,0.2c4.1,0.1,8.2,0.3,12.3,0.5c5.2,0.3,10.4,0.6,15.6,0.9c2.2,0.2,4.3,0.3,6.5,0.5c5.9,0.5,11.8,1,17.7,1.5   c4.3,0.4,8.6,0.8,12.9,1.2c0.7,0.1,1.4,0.1,2.1,0.2c3.4,0.3,6.8,0.7,10.2,1c2.7,0.3,5.3,0.5,8,0.8c3.6,0.4,7.1,0.7,10.7,1.1   c10.2,1,20.4,2.1,30.7,3.1c1.8,0.2,3.6,0.4,5.4,0.5c25.5,2.4,51,4.2,76.7,3.5c13.2-0.3,26.3-1.6,38.7-6.7c2.6-1.1,5.2-2.3,7.5-3.8   c1.2-0.8,2.4-1.6,3.5-2.5c2.5-2.1,4.7-4.5,6.4-7.6c0.3-0.5,0.5-0.9,0.7-1.4c-4.1,2.4-8.4,3.4-12.5,3.4c-3,0-5.8-1-7.9-2.9   c-0.9-0.7-1.7-1.6-2.4-2.6c-1.9-2.7-3-6.4-3-10.6c0-0.2,0-0.4,0-0.5c0-0.1,0-0.1,0-0.2c-0.4,0.8-0.9,1.5-1.3,2.3   c-0.5,0.9-1,1.7-1.6,2.6c-4.2,6.5-9.3,12-14.3,12c-5.5,0-8-8.5-8-15.7c0-0.4,0-0.8,0-1.2c-4.3,8.5-10.3,17.1-16.2,17.1   c-3.2,0-7.9-0.8-8.9-7.1c-0.1-0.5-0.1-0.9-0.2-1.4c0-0.4,0-0.7,0-1.1c0-1.5,0.1-3.2,0.4-5.1h-1c-1.4,4.4-7.3,14.8-13.9,14.8   c-2.9,0-5.4-2.1-7-5.5c-0.8-1.7-1.3-3.8-1.6-6.1c-0.1-0.9-0.1-1.8-0.1-2.8c0-4.6,0.8-9,2.1-13.1c0.2-0.5,0.3-0.9,0.5-1.4   c5.1-13.9,16.9-23.7,28.6-23.7c5.7,0,10.1,3,12.4,5.2c-0.5,1.2-1.1,2.8-1.8,4.7c-1.5,4.4-3.3,10.3-4.7,16   c-1.1,4.8-1.9,9.5-1.9,13.1c0,0.8,0.1,1.5,0.3,2.1c0.3,1.1,1,1.7,1.9,1.7c2.6,0,7.4-6.3,11.9-15.2c0.1-0.4,0.1-0.9,0.2-1.3   c3.7-23.5,17.6-54.1,26.3-54.1c1.9,0,3.9,1.7,3.9,6c0,1.2-0.1,2.4-0.3,3.7c-1.1,7.9-5.4,17.5-10.6,26.4c-1.1,1.8-2.2,3.5-3.3,5.2   c-0.6,1-1.3,1.9-1.9,2.8c-0.7,2.7-1.8,8.5-2.6,13.7c-0.4,2.8-0.7,5.5-0.7,7.2c0,1.1,0.1,2.1,0.2,2.8c0.3,1.4,0.8,2.1,1.6,2.1   c1.4,0,3.5-1.6,5.9-4.3c2.2-2.5,4.6-5.9,6.8-10c3.6-13.5,14.4-27.5,26.7-27.5c7.7,0,10,4.4,10,8.8c0,1.2-0.1,2.3-0.4,3.3   c-1.6,6.1-7.6,8.7-13.8,9.8c-2.4,0.4-4.9,0.6-7.2,0.7c-0.8,0-1.5,0-2.2,0.1c-1,3.2-1.4,6.2-1.4,8.8c0,1.2,0.1,2.3,0.2,3.3   c0.6,4.6,2.8,7.4,8.6,7.4c0.4,0,0.8,0,1.4-0.1c0.2,0,0.4,0,0.6-0.1c0.1,0,0.2,0,0.3-0.1c3.5-0.4,7.6-2.6,9.6,2   c0.1,0.3,0.2,0.5,0.3,0.8C515.6,256.1,515.4,257.9,515,259.6z"/>
	<path id="XMLID_200_" d="M431.3,217.2c-4.3,4-8.1,11.2-10.1,17.9c-0.9,3-1.4,6-1.4,8.4c0,1.2,0.1,2.1,0.3,2.9   c0.5,2.5,1.7,3.1,2.7,3.1c4.1,0,6.4-6.4,8.8-14.3c1.5-4.9,2.9-10.2,4.9-15c0.6-1.5,1.3-3,2.1-4.4c0.3-0.6,0.7-1.1,1-1.7   c0,0-0.7-0.3-1.7-0.3C435.7,213.9,433.4,215.1,431.3,217.2z"/>
	<path id="XMLID_201_" d="M474.8,214.6c3-5.7,6.5-14.1,8.2-19.5c0.6-1.9,0.9-3.5,0.9-4.4c0-1.2-0.4-1.8-1.1-1.8   c-2.3,0-6.7,13.3-10.2,27.8h1C474,216.1,474.4,215.3,474.8,214.6z"/>
</g>
</svg>